<?xml version="1.0" encoding="UTF-8" standalone="no"?>
<svg
   width="63.695446"
   height="63.695446"
   viewBox="0 0 63.695446 63.695446"
   fill="none"
   version="1.1"
   id="svg6"
   sodipodi:docname="circle.svg"
   inkscape:version="1.4.2 (ebf0e940d0, 2025-05-08)"
   xmlns:inkscape="http://www.inkscape.org/namespaces/inkscape"
   xmlns:sodipodi="http://sodipodi.sourceforge.net/DTD/sodipodi-0.dtd"
   xmlns="http://www.w3.org/2000/svg"
   xmlns:svg="http://www.w3.org/2000/svg">
  <defs
     id="defs6" />
  <sodipodi:namedview
     id="namedview6"
     pagecolor="#ffffff"
     bordercolor="#000000"
     borderopacity="0.25"
     inkscape:showpageshadow="2"
     inkscape:pageopacity="0.0"
     inkscape:pagecheckerboard="0"
     inkscape:deskcolor="#d1d1d1"
     inkscape:zoom="5.0241936"
     inkscape:cx="29.855538"
     inkscape:cy="19.008026"
     inkscape:window-width="1920"
     inkscape:window-height="1008"
     inkscape:window-x="0"
     inkscape:window-y="0"
     inkscape:window-maximized="1"
     inkscape:current-layer="svg6" />
  <path
     id="path7"
     style="opacity:1;fill:#072ac8;fill-opacity:1;stroke-width:1.38623"
     sodipodi:type="inkscape:offset"
     inkscape:radius="2.6359444"
     inkscape:original="M 50.947266 53.861328 C 48.184239 53.861417 45.43791 54.999151 43.484375 56.953125 C 41.53084 58.907099 40.393999 61.652989 40.394531 64.416016 C 40.394621 67.178646 41.532853 69.923479 43.486328 71.876953 C 45.439803 73.830428 48.184635 74.968661 50.947266 74.96875 C 53.710291 74.969282 56.456182 73.832441 58.410156 71.878906 C 60.36413 69.925372 61.501864 67.179041 61.501953 64.416016 C 61.502486 61.652594 60.36419 58.907159 58.410156 56.953125 C 56.456122 54.999091 53.710687 53.860796 50.947266 53.861328 z "
     d="m 50.947266,51.224609 c -3.486574,1.13e-4 -6.861019,1.399528 -9.326172,3.865235 -2.46502,2.465573 -3.863953,5.839773 -3.863282,9.326172 1.14e-4,3.486597 1.400784,6.859768 3.865235,9.324218 2.46445,2.46445 5.837619,3.865122 9.324219,3.865235 3.486397,6.71e-4 6.860597,-1.398261 9.326171,-3.863282 2.465709,-2.465152 3.865123,-5.839599 3.865235,-9.326171 6.73e-4,-3.487616 -1.4002,-6.861138 -3.865235,-9.326172 -2.465034,-2.465035 -5.838557,-3.865906 -9.326171,-3.865235 z"
     transform="matrix(2.4144568,0,0,2.4144568,-91.164607,-123.67961)" />
  <path
     d="m 45.434052,47.788523 c -1.886415,1.622273 -3.999065,2.867167 -6.337949,3.734923 -2.339126,0.867756 -4.762999,1.301632 -7.271765,1.301632 -1.924008,0 -3.782005,-0.25472 -5.573991,-0.763932 -1.773104,-0.490377 -3.442484,-1.188396 -5.008114,-2.093817 -1.54675,-0.924255 -2.961477,-2.027903 -4.244157,-3.310462 -1.28268,-1.282801 -2.386159,-2.697431 -3.310462,-4.244132 -0.905421,-1.565776 -1.61276,-3.235131 -2.122068,-5.008067 -0.490437,-1.79201 -0.735656,-3.650176 -0.735656,-5.574015 0,-1.924105 0.245219,-3.782102 0.735656,-5.574063 0.509308,-1.791986 1.216647,-3.461366 2.122068,-5.008115 0.924303,-1.56563 2.027782,-2.989773 3.310462,-4.272478 1.28268,-1.282656 2.697407,-2.376719 4.244157,-3.28214 1.56563,-0.924278 3.23501,-1.631642 5.008114,-2.12209 1.791986,-0.509282 3.649983,-0.763934 5.573991,-0.763934 2.508766,0 4.932639,0.433829 7.271765,1.301537 2.338884,0.848826 4.451534,2.093793 6.337949,3.734875 l -4.300872,7.073586 c -1.188396,-1.282681 -2.59361,-2.263554 -4.215883,-2.94262 -1.622274,-0.697923 -3.319878,-1.046884 -5.092959,-1.046884 -1.791961,0 -3.470782,0.339521 -5.036388,1.018587 -1.56563,0.679066 -2.933203,1.603368 -4.102693,2.772859 -1.169515,1.150633 -2.093793,2.518206 -2.772859,4.102693 -0.679066,1.56563 -1.018587,3.234986 -1.018587,5.008187 0,1.772936 0.339521,3.442533 1.018587,5.008067 0.679066,1.546701 1.603344,2.904833 2.772859,4.074395 1.16949,1.169563 2.537063,2.093817 4.102693,2.772763 1.565606,0.679186 3.244427,1.018659 5.036388,1.018659 1.773081,0 3.470685,-0.339473 5.092959,-1.018659 1.622273,-0.697778 3.027487,-1.688189 4.215883,-2.970748 z"
     fill="#072ac8"
     id="path1"
     style="fill:#ffffff;stroke-width:2.41446" />
</svg>
