<?xml version="1.0" encoding="UTF-8" standalone="no"?>
<svg
   height="24px"
   viewBox="0 -960 960 960"
   width="24px"
   fill="#6B708D"
   version="1.1"
   id="svg1"
   sodipodi:docname="menu_close.svg"
   inkscape:version="1.4.2 (ebf0e940d0, 2025-05-08)"
   xmlns:inkscape="http://www.inkscape.org/namespaces/inkscape"
   xmlns:sodipodi="http://sodipodi.sourceforge.net/DTD/sodipodi-0.dtd"
   xmlns="http://www.w3.org/2000/svg"
   xmlns:svg="http://www.w3.org/2000/svg">
  <defs
     id="defs1" />
  <sodipodi:namedview
     id="namedview1"
     pagecolor="#ffffff"
     bordercolor="#000000"
     borderopacity="0.25"
     inkscape:showpageshadow="2"
     inkscape:pageopacity="0.0"
     inkscape:pagecheckerboard="0"
     inkscape:deskcolor="#d1d1d1"
     showguides="true"
     inkscape:zoom="47.081527"
     inkscape:cx="12.000461"
     inkscape:cy="11.989841"
     inkscape:window-width="1920"
     inkscape:window-height="1008"
     inkscape:window-x="0"
     inkscape:window-y="0"
     inkscape:window-maximized="1"
     inkscape:current-layer="svg1">
    <sodipodi:guide
       position="481.4878,703.76095"
       orientation="1,0"
       id="guide1"
       inkscape:locked="false" />
  </sodipodi:namedview>
  <path
     id="path3"
     d="M 158.35938 -731.5625 C 155.75585 -731.5625 153.29738 -731.38077 150.85938 -731.01562 C 150.09666 -730.90113 149.34023 -730.77525 148.59375 -730.625 C 148.40878 -730.58781 148.23085 -730.50813 148.04688 -730.46875 C 147.21224 -730.28986 146.361 -730.14596 145.54688 -729.92188 C 145.20735 -729.82868 144.86721 -729.71042 144.53125 -729.60938 C 144.08069 -729.47345 143.64726 -729.29069 143.20312 -729.14062 C 142.96991 -729.06207 142.73145 -728.98869 142.5 -728.90625 C 142.13188 -728.77488 141.76989 -728.65685 141.40625 -728.51562 C 140.96736 -728.34569 140.51051 -728.23115 140.07812 -728.04688 C 139.32482 -727.72465 138.62413 -727.31894 137.89062 -726.95312 C 137.25962 -726.63911 136.63203 -726.36186 136.01562 -726.01562 L 135.9375 -725.9375 C 134.82165 -725.30703 133.72412 -724.64256 132.65625 -723.90625 C 132.60885 -723.8736 132.54731 -723.86099 132.5 -723.82812 C 131.46705 -723.11007 130.44101 -722.30183 129.45312 -721.48438 C 128.30344 -720.53088 127.18217 -719.52592 126.09375 -718.4375 C 122.80152 -715.14277 120.11044 -711.59112 118.04688 -707.73438 L 118.04688 -707.65625 C 116.68657 -705.10374 115.58604 -702.40661 114.76562 -699.60938 C 113.94188 -696.79083 113.39958 -693.84854 113.125 -690.78125 C 112.98771 -689.2476 112.89062 -687.68958 112.89062 -686.09375 C 112.89062 -685.49295 112.87104 -684.88895 112.89062 -684.29688 L 112.89062 -273.90625 C 112.89062 -272.31042 112.98771 -270.7524 113.125 -269.21875 C 113.39958 -266.15146 113.94188 -263.20917 114.76562 -260.39062 C 115.58599 -257.59311 116.68652 -254.81837 118.04688 -252.26562 C 118.725 -251.00107 119.5012 -249.71985 120.3125 -248.51562 C 121.96186 -246.06892 123.89875 -243.75917 126.09375 -241.5625 C 128.49447 -239.16178 131.05123 -237.13491 133.75 -235.39062 L 133.82812 -235.39062 C 136.24066 -233.8365 138.75589 -232.51472 141.40625 -231.48438 C 141.99722 -231.25486 142.60033 -231.06286 143.20312 -230.85938 C 143.64726 -230.70931 144.08069 -230.52655 144.53125 -230.39062 C 147.24359 -229.57239 150.10191 -229.05592 153.04688 -228.75 L 153.125 -228.75 C 153.20819 -228.74158 153.276 -228.67989 153.35938 -228.67188 C 153.41103 -228.6669 153.4639 -228.67669 153.51562 -228.67188 C 155.12036 -228.5208 156.76428 -228.43774 158.4375 -228.4375 L 218.59375 -228.4375 C 231.36041 -228.4375 242.15083 -232.7825 250.9375 -241.5625 C 259.7175 -250.34917 264.0625 -261.13958 264.0625 -273.90625 C 264.0625 -286.67292 259.71751 -297.47 250.9375 -306.25 C 242.15083 -315.03667 231.36041 -319.45312 218.59375 -319.45312 L 203.90625 -319.45312 L 203.90625 -640.625 L 238.90625 -640.625 C 251.67291 -640.625 262.46333 -644.96333 271.25 -653.75 C 280.03 -662.53 284.45312 -673.32708 284.45312 -686.09375 C 284.45312 -698.86042 280.03 -709.65083 271.25 -718.4375 C 262.46333 -727.2175 251.67291 -731.5625 238.90625 -731.5625 L 158.35938 -731.5625 z M 741.40625 -731.5625 C 728.63959 -731.5625 717.84917 -727.2175 709.0625 -718.4375 C 700.2825 -709.65083 695.9375 -698.86042 695.9375 -686.09375 C 695.9375 -673.32708 700.28249 -662.53 709.0625 -653.75 C 717.84917 -644.96333 728.63959 -640.625 741.40625 -640.625 L 756.01562 -640.625 L 756.01562 -319.45312 L 739.375 -319.45312 L 721.01562 -319.45312 C 708.24896 -319.45313 697.45854 -315.03667 688.67188 -306.25 C 679.89188 -297.47 675.54688 -286.67292 675.54688 -273.90625 C 675.54688 -261.13958 679.89188 -250.34917 688.67188 -241.5625 C 697.45855 -232.7825 708.24896 -228.4375 721.01562 -228.4375 L 741.40625 -228.4375 L 801.48438 -228.4375 C 802.965 -228.4375 804.43195 -228.47673 805.85938 -228.59375 C 806.09509 -228.61302 806.32824 -228.64939 806.5625 -228.67188 C 807.6672 -228.7779 808.7715 -228.88489 809.84375 -229.0625 L 809.92188 -229.0625 C 810.00358 -229.07615 810.07473 -229.12656 810.15625 -229.14062 C 810.57605 -229.21384 810.99147 -229.29073 811.40625 -229.375 C 811.67237 -229.42855 811.92345 -229.47316 812.1875 -229.53125 C 812.71681 -229.64765 813.22896 -229.78722 813.75 -229.92188 C 813.93381 -229.96938 814.1141 -230.02835 814.29688 -230.07812 C 814.84835 -230.2283 815.3954 -230.37602 815.9375 -230.54688 C 816.01646 -230.57183 816.09312 -230.5996 816.17188 -230.625 C 817.15282 -230.94023 818.11246 -231.25733 819.0625 -231.64062 C 819.11658 -231.66244 819.16477 -231.69671 819.21875 -231.71875 C 819.27326 -231.7409 819.32059 -231.7745 819.375 -231.79688 C 819.68907 -231.92663 820.00184 -232.05025 820.3125 -232.1875 C 820.91418 -232.45332 821.52046 -232.75295 822.10938 -233.04688 C 822.31711 -233.15058 822.52823 -233.25218 822.73438 -233.35938 C 822.8863 -233.43831 823.05206 -233.51292 823.20312 -233.59375 C 823.35588 -233.67566 823.52001 -233.74427 823.67188 -233.82812 C 823.77176 -233.88314 823.88487 -233.92852 823.98438 -233.98438 C 824.19783 -234.10452 824.39768 -234.25099 824.60938 -234.375 C 824.95431 -234.57641 825.28472 -234.78833 825.625 -235 C 825.70535 -235.04999 825.77928 -235.10569 825.85938 -235.15625 C 825.98538 -235.23583 826.12464 -235.30962 826.25 -235.39062 L 826.32812 -235.46875 L 826.40625 -235.54688 C 826.48548 -235.59864 826.56165 -235.65079 826.64062 -235.70312 C 826.7068 -235.74707 826.80901 -235.73691 826.875 -235.78125 L 826.95312 -235.85938 C 827.03149 -235.91233 827.10939 -235.96211 827.1875 -236.01562 C 827.26617 -236.06942 827.34346 -236.1175 827.42188 -236.17188 C 827.5754 -236.27852 827.7381 -236.37553 827.89062 -236.48438 C 828.67013 -237.03995 829.40279 -237.66833 830.15625 -238.28125 C 830.25652 -238.36283 830.36894 -238.43303 830.46875 -238.51562 C 830.54153 -238.57586 830.63059 -238.6111 830.70312 -238.67188 C 830.75876 -238.71859 830.80388 -238.78109 830.85938 -238.82812 C 830.91478 -238.87495 830.96037 -238.93723 831.01562 -238.98438 C 831.96869 -239.79832 832.99598 -240.65432 833.90625 -241.5625 C 835.91665 -243.57443 837.66868 -245.74815 839.21875 -247.96875 L 839.29688 -248.04688 C 839.40498 -248.20256 839.50352 -248.35892 839.60938 -248.51562 C 839.71402 -248.67069 839.81943 -248.82831 839.92188 -248.98438 C 840.44438 -249.7799 840.94116 -250.5847 841.40625 -251.40625 L 841.48438 -251.48438 C 842.11956 -252.61301 842.67604 -253.74424 843.20312 -254.92188 C 843.22665 -254.97442 843.25794 -255.02548 843.28125 -255.07812 C 843.44905 -255.45727 843.59336 -255.86579 843.75 -256.25 C 843.80263 -256.37899 843.85487 -256.51106 843.90625 -256.64062 C 843.96681 -256.79351 844.00369 -256.9557 844.0625 -257.10938 C 844.26057 -257.62655 844.50927 -258.1457 844.6875 -258.67188 C 844.70343 -258.71899 844.74985 -258.85907 844.76562 -258.90625 C 845.16736 -260.11501 845.48372 -261.32213 845.78125 -262.57812 C 845.79983 -262.65642 845.8412 -262.73402 845.85938 -262.8125 C 845.92374 -263.09122 845.95636 -263.39084 846.01562 -263.67188 C 846.15679 -264.34208 846.29414 -265.01975 846.40625 -265.70312 C 846.47467 -266.118 846.5048 -266.53339 846.5625 -266.95312 C 846.6333 -267.46869 846.6641 -268.07086 846.71875 -268.59375 C 846.72409 -268.64562 846.71357 -268.69805 846.71875 -268.75 C 846.73465 -268.9099 846.78248 -269.05817 846.79688 -269.21875 C 846.84466 -269.74997 846.92189 -270.24261 846.95312 -270.78125 C 847.01328 -271.80989 847.03116 -272.85038 847.03125 -273.90625 C 847.03119 -274.64987 847.06132 -275.3635 847.03125 -276.09375 L 847.03125 -683.90625 C 847.06132 -684.6365 847.03119 -685.35013 847.03125 -686.09375 C 847.03101 -688.93841 846.84277 -691.64983 846.40625 -694.29688 C 846.31191 -694.87191 846.20866 -695.44991 846.09375 -696.01562 C 846.06574 -696.15351 845.96673 -696.26892 845.9375 -696.40625 C 845.398 -698.93321 844.70354 -701.41058 843.75 -703.75 C 843.73731 -703.78109 843.68463 -703.79707 843.67188 -703.82812 C 842.68747 -706.22611 841.49853 -708.50263 840.07812 -710.70312 C 839.83293 -711.08317 839.63312 -711.50086 839.375 -711.875 C 839.33338 -711.93541 839.26071 -711.97099 839.21875 -712.03125 C 838.51586 -713.03881 837.7508 -714.03537 836.95312 -715 C 836.87268 -715.09715 836.80016 -715.21579 836.71875 -715.3125 C 835.82669 -716.37307 834.91395 -717.42932 833.90625 -718.4375 L 833.82812 -718.4375 C 832.91203 -719.3529 831.97525 -720.19654 831.01562 -721.01562 C 830.90288 -721.11191 830.81647 -721.23316 830.70312 -721.32812 C 830.58539 -721.42698 830.43088 -721.46507 830.3125 -721.5625 C 830.25542 -721.60938 830.21348 -721.6722 830.15625 -721.71875 C 830.0828 -721.77851 829.99557 -721.81578 829.92188 -721.875 C 829.55825 -722.16714 829.19778 -722.45551 828.82812 -722.73438 C 828.50208 -722.98073 828.22136 -723.2796 827.89062 -723.51562 C 827.73489 -723.62662 827.57865 -723.71942 827.42188 -723.82812 C 827.1701 -724.00303 826.89509 -724.12788 826.64062 -724.29688 C 826.57915 -724.33761 826.546 -724.41273 826.48438 -724.45312 C 826.4055 -724.50495 826.32913 -724.55812 826.25 -724.60938 C 826.12149 -724.69262 825.98856 -724.762 825.85938 -724.84375 C 825.79029 -724.88738 825.69428 -724.87867 825.625 -724.92188 C 825.27277 -725.14146 824.88847 -725.41641 824.53125 -725.625 C 824.34238 -725.73488 824.17464 -725.90881 823.98438 -726.01562 C 823.37925 -726.35622 822.72862 -726.64363 822.10938 -726.95312 C 821.52044 -727.24706 820.9142 -727.54667 820.3125 -727.8125 C 818.23677 -728.72953 816.13389 -729.49565 813.90625 -730.07812 C 813.85764 -730.09092 813.79869 -730.06549 813.75 -730.07812 C 812.98082 -730.27641 812.19349 -730.46649 811.40625 -730.625 C 811.33205 -730.63993 811.24623 -730.61042 811.17188 -730.625 C 810.7496 -730.70782 810.34932 -730.86607 809.92188 -730.9375 L 809.84375 -730.9375 C 808.7705 -731.11502 807.66831 -731.22233 806.5625 -731.32812 L 806.48438 -731.32812 C 806.27345 -731.34797 806.07148 -731.38901 805.85938 -731.40625 L 805.78125 -731.40625 C 804.40433 -731.517 802.98886 -731.56049 801.5625 -731.5625 L 801.48438 -731.5625 L 741.40625 -731.5625 z M 336.64062 -666.79688 C 325.4549 -666.78868 314.55526 -662.1434 306.64062 -654.21875 C 298.71695 -646.28509 294.13778 -635.37189 294.14062 -624.21875 C 294.15193 -613.03857 298.81987 -602.10768 306.71875 -594.21875 L 420.78125 -480.39062 L 306.64062 -366.40625 C 298.69007 -358.46575 294.14826 -347.53684 294.14062 -336.40625 C 294.13344 -325.24824 298.74466 -314.31217 306.64062 -306.40625 C 314.55619 -298.48066 325.45837 -293.83952 336.64062 -293.82812 A 13.718155 13.718155 0 0 0 336.71875 -293.82812 C 347.87169 -293.82542 358.78394 -298.48146 366.71875 -306.40625 L 480.78125 -420.3125 L 594.92188 -306.40625 C 602.85551 -298.48263 613.76869 -293.82527 624.92188 -293.82812 C 636.10427 -293.83942 647.00523 -298.47958 654.92188 -306.40625 C 662.81784 -314.31219 667.50712 -325.24833 667.5 -336.40625 C 667.49298 -347.53762 662.87286 -358.46532 654.92188 -366.40625 L 540.85938 -480.3125 L 654.92188 -594.21875 C 662.84853 -602.1354 667.48865 -613.09569 667.5 -624.21875 C 667.50269 -635.37166 662.84559 -646.28503 654.92188 -654.21875 C 647.00463 -662.14602 636.10674 -666.78831 624.92188 -666.79688 C 613.75808 -666.80406 602.85098 -662.21595 594.92188 -654.29688 L 480.78125 -540.3125 L 366.71875 -654.29688 C 358.79057 -662.21503 347.8073 -666.80576 336.64062 -666.79688 z " />
</svg>
