<?xml version="1.0" encoding="UTF-8" standalone="no"?>
<svg
   width="102.25043"
   height="35.961658"
   viewBox="0 0 102.25043 35.961658"
   fill="none"
   version="1.1"
   id="svg8"
   sodipodi:docname="airbnb-logo.svg"
   inkscape:version="1.4.2 (ebf0e940d0, 2025-05-08)"
   xmlns:inkscape="http://www.inkscape.org/namespaces/inkscape"
   xmlns:sodipodi="http://sodipodi.sourceforge.net/DTD/sodipodi-0.dtd"
   xmlns="http://www.w3.org/2000/svg"
   xmlns:svg="http://www.w3.org/2000/svg">
  <defs
     id="defs8">
    <clipPath
       id="clip0">
      <rect
         width="123"
         height="26"
         fill="#ffffff"
         id="rect5"
         x="0"
         y="0" />
    </clipPath>
    <clipPath
       id="clip0-3">
      <rect
         width="104"
         height="32"
         fill="#ffffff"
         id="rect1-5"
         x="0"
         y="0" />
    </clipPath>
  </defs>
  <sodipodi:namedview
     id="namedview8"
     pagecolor="#ffffff"
     bordercolor="#000000"
     borderopacity="0.25"
     inkscape:showpageshadow="2"
     inkscape:pageopacity="0.0"
     inkscape:pagecheckerboard="0"
     inkscape:deskcolor="#d1d1d1"
     inkscape:zoom="8"
     inkscape:cx="44.25"
     inkscape:cy="15.0625"
     inkscape:window-width="1920"
     inkscape:window-height="1008"
     inkscape:window-x="0"
     inkscape:window-y="0"
     inkscape:window-maximized="1"
     inkscape:current-layer="svg8"
     showguides="true">
    <sodipodi:guide
       position="-5.1373797,12.263423"
       orientation="0,-1"
       id="guide9"
       inkscape:locked="false" />
    <sodipodi:guide
       position="51.15729,17.865567"
       orientation="1,0"
       id="guide10"
       inkscape:locked="false" />
    <sodipodi:guide
       position="-5.6759761,28.434257"
       orientation="0,-1"
       id="guide11"
       inkscape:locked="false" />
  </sodipodi:namedview>
  <rect
     style="opacity:0.01;fill:#ffffff;stroke-width:0.00166738"
     id="rect1"
     width="0.11226199"
     height="0.091062769"
     x="102.14031"
     y="0" />
  <rect
     style="opacity:0.01;fill:#ffffff;stroke-width:0.00127849"
     id="rect2"
     width="0.082999997"
     height="0.072412901"
     x="0"
     y="35.889248" />
  <g
     clip-path="url(#clip0-3)"
     id="g2"
     transform="matrix(0.98671842,0,0,0.98671842,-0.04538359,0.27437112)">
    <path
       d="m 30.0261,22.6792 c -0.1616,-0.39 -0.313,-0.8 -0.4746,-1.15 l -0.7473,-1.67 -0.0303,-0.03 c -2.2215,-4.8 -4.5946,-9.68 -7.109,-14.47999 l -0.101,-0.2 c -0.2524,-0.47 -0.5049,-0.99 -0.7674,-1.47 -0.3231,-0.57 -0.6362,-1.18 -1.1512,-1.76 -0.502,-0.60687 -1.1338,-1.09581 -1.8497,-1.431543 -0.716,-0.335733 -1.4983,-0.5098838 -2.2905,-0.5098838 -0.7922,0 -1.5745,0.1741508 -2.2904,0.5098838 -0.716,0.335733 -1.3478,0.824673 -1.8498,1.431543 -0.4746,0.58 -0.828,1.19 -1.1512,1.76 -0.25241,0.52 -0.50486,1.03 -0.76741,1.5 l -0.10098,0.2 C 6.87129,10.1792 4.45786,15.0592 2.23629,19.8592 l -0.06059,0.06 c -0.22215,0.52 -0.4847,1.06 -0.73715,1.64 -0.16157,0.35 -0.32314,0.73 -0.484709,1.15 -0.436202,1.0998 -0.575495,2.2932 -0.404151,3.4625 0.171344,1.1693 0.64741,2.2743 1.38128,3.2059 0.73387,0.9317 1.70022,1.6579 2.8038,2.1071 1.10359,0.4491 2.30632,0.6058 3.48966,0.4545 1.13448,-0.1479 2.22687,-0.5221 3.21117,-1.1 1.3128,-0.73 2.575,-1.79 3.9887,-3.32 1.4138,1.53 2.7063,2.59 3.9888,3.33 1.2332,0.7169 2.6298,1.1125 4.0594,1.15 1.6554,0.0068 3.2574,-0.5797 4.5102,-1.6513 1.2529,-1.0715 2.0719,-2.5558 2.3059,-4.1787 0.2705,-1.1662 0.179,-2.3861 -0.2625,-3.5 z m -14.5008,1.66 c -1.7369,-2.2 -2.8678,-4.22 -3.2516,-5.95 -0.1589,-0.6411 -0.1932,-1.3062 -0.1009,-1.96 0.0706,-0.51 0.2625,-0.96 0.5251,-1.34 0.6058,-0.87 1.6661,-1.41 2.8274,-1.41 0.5515,-0.0167 1.0985,0.1025 1.592,0.3469 0.4935,0.2443 0.918,0.6062 1.2355,1.0531 0.2625,0.4 0.4544,0.84 0.515,1.35 0.1009,0.58 0.0606,1.25 -0.101,1.96 -0.3837,1.7 -1.5147,3.74 -3.2415,5.95 z m 12.8649,1.48 c -0.1147,0.824 -0.4455,1.6038 -0.9593,2.2617 -0.5138,0.658 -1.1927,1.1711 -1.9691,1.4883 -0.7675,0.32 -1.6157,0.41 -2.4437,0.32 -0.8079,-0.1 -1.6157,-0.36 -2.4438,-0.84 -1.3748,-0.8415 -2.6111,-1.887 -3.6656,-3.1 2.1206,-2.6 3.4031,-4.97 3.8878,-7.08 0.2322,-1 0.2625,-1.9 0.1616,-2.73 -0.1261,-0.7867 -0.4224,-1.5372 -0.8685,-2.2 -0.5093,-0.7187 -1.1892,-1.3025 -1.9798,-1.7001 -0.7906,-0.3976 -1.6677,-0.5967 -2.5542,-0.5799 -1.8681,0 -3.5343,0.86 -4.5441,2.27 -0.4546,0.6612 -0.7484,1.4176 -0.8583,2.21 -0.1313,0.84 -0.101,1.77 0.1615,2.73 0.4847,2.11 1.7975,4.51 3.8878,7.1 -1.0366,1.2362 -2.2758,2.2909 -3.6656,3.12 -0.83816,0.48 -1.6359,0.73 -2.44375,0.83 C 6.83684,30.0786 5.56779,29.7404 4.56183,28.9783 3.55588,28.2162 2.89433,27.0917 2.721,25.8492 c -0.10098,-0.8 -0.0303,-1.6 0.29284,-2.5 0.10098,-0.32 0.25245,-0.64 0.41402,-1.02 0.22216,-0.52 0.48471,-1.06 0.73716,-1.6 l 0.04039,-0.07 c 2.18118,-4.77 4.56431,-9.64 7.03829,-14.40999 l 0.101,-0.2 c 0.2525,-0.48 0.5049,-0.99 0.7675,-1.47 0.2625,-0.51 0.5453,-1 0.9088,-1.4 0.3147,-0.37198 0.7079,-0.67113 1.1519,-0.87638 0.444,-0.20526 0.928,-0.31163 1.418,-0.31163 0.4901,0 0.9741,0.10637 1.4181,0.31163 0.444,0.20525 0.8372,0.5044 1.1519,0.87638 0.3534,0.4 0.6463,0.89 0.9088,1.4 0.2525,0.48 0.5049,1 0.7675,1.47 l 0.101,0.2 c 2.4639,4.76999 4.847,9.63999 7.0686,14.40999 l 0.0303,0.03 c 0.2625,0.52 0.4847,1.1 0.7371,1.6 0.1616,0.39 0.3232,0.7 0.4242,1.03 0.1918,0.9 0.2928,1.7 0.1918,2.5 z m 14.0565,-1.7 c -0.7609,0.011 -1.5146,-0.1477 -2.2051,-0.4645 -0.6905,-0.3168 -1.3001,-0.7835 -1.7836,-1.3655 -1.0865,-1.24 -1.6632,-2.8389 -1.6157,-4.48 -0.0167,-1.6768 0.5786,-3.3031 1.6762,-4.58 0.5078,-0.5894 1.1398,-1.0614 1.8516,-1.3827 0.7119,-0.3214 1.4862,-0.4843 2.2684,-0.4773 0.7361,-0.0199 1.4652,0.1458 2.1188,0.4817 0.6536,0.3359 1.2102,0.8308 1.6175,1.4383 l 0.101,-1.57 h 2.9486 v 12.08 h -2.9587 l -0.101,-1.76 c -0.4199,0.6487 -1.0003,1.1803 -1.686,1.5443 -0.6857,0.3641 -1.4541,0.5485 -2.232,0.5357 z m 0.7674,-2.88 c 0.5857,0 1.1007,-0.16 1.5854,-0.45 0.4443,-0.32 0.8079,-0.74 1.0906,-1.25 0.2525,-0.51 0.3837,-1.12 0.3837,-1.8 0.0394,-0.5906 -0.0767,-1.1812 -0.3369,-1.7141 -0.2602,-0.5328 -0.6556,-0.9897 -1.1475,-1.3259 -0.4726,-0.2916 -1.0184,-0.4462 -1.5753,-0.4462 -0.5569,0 -1.1026,0.1546 -1.5753,0.4462 -0.4443,0.32 -0.8078,0.74 -1.0905,1.25 -0.2671,0.5625 -0.3985,1.1787 -0.3838,1.8 -0.0393,0.5906 0.0767,1.1812 0.3369,1.7141 0.2602,0.5329 0.6556,0.9897 1.1475,1.3259 0.4746,0.29 0.9896,0.45 1.5652,0.45 z M 54.4734,8.45921 c 0,0.35 -0.0605,0.67 -0.2221,0.93 -0.1616,0.25 -0.3837,0.48 -0.6766,0.63999 -0.2928,0.16 -0.6059,0.22 -0.929,0.22 -0.3231,0 -0.6463,-0.06 -0.9391,-0.22 -0.277,-0.15268 -0.5099,-0.373 -0.6766,-0.63999 -0.1564,-0.28487 -0.2331,-0.60594 -0.2221,-0.93 0,-0.36 0.0706,-0.68 0.2221,-0.93 0.1616,-0.3 0.3938,-0.48 0.6766,-0.64 0.2928,-0.16 0.6059,-0.23 0.9391,-0.23 0.3214,-0.00733 0.6393,0.06806 0.9225,0.2188 0.2832,0.15074 0.522,0.37167 0.6932,0.6412 0.1469,0.29155 0.2197,0.61424 0.212,0.94 z M 51.0401,23.7592 v -12.06 h 3.2112 v 12.08 H 51.03 Z m 11.7945,-8.9 v 0.04 c -0.1514,-0.07 -0.3534,-0.1 -0.5049,-0.13 -0.2019,-0.04 -0.3635,-0.04 -0.5554,-0.04 -0.8987,0 -1.5753,0.26 -2.0196,0.8 -0.4847,0.55 -0.7068,1.32 -0.7068,2.31 v 5.93 h -3.2213 v -12.08 h 2.9587 l 0.101,1.83 c 0.3231,-0.64 0.7069,-1.12 1.2521,-1.48 0.5424,-0.3498 1.181,-0.5245 1.8278,-0.5 0.2322,0 0.4544,0.02 0.6463,0.06 0.1009,0.03 0.1615,0.03 0.2221,0.06 z m 1.2926,8.9 V 6.73921 h 3.2112 v 6.49999 c 0.4544,-0.58 0.9694,-1.03 1.6156,-1.38 1.0232,-0.4968 2.1855,-0.6377 3.2994,-0.4 1.1139,0.2377 2.1145,0.8401 2.8402,1.71 1.0889,1.2426 1.6657,2.8455 1.6157,4.49 0.0167,1.6768 -0.5786,3.3032 -1.6762,4.58 -0.5078,0.5894 -1.1398,1.0614 -1.8516,1.3827 -0.7119,0.3214 -1.4862,0.4843 -2.2684,0.4773 -0.7361,0.02 -1.4652,-0.1458 -2.1188,-0.4817 -0.6536,-0.3358 -1.2102,-0.8308 -1.6175,-1.4383 l -0.101,1.57 -2.9486,0.03 z m 6.2103,-2.52 c 0.5756,0 1.0906,-0.16 1.5753,-0.45 0.4443,-0.32 0.8078,-0.74 1.0906,-1.25 0.2625,-0.51 0.3837,-1.12 0.3837,-1.8 0,-0.67 -0.1212,-1.28 -0.3837,-1.79 -0.2652,-0.4918 -0.6378,-0.9188 -1.0906,-1.25 -0.4727,-0.2916 -1.0184,-0.4462 -1.5753,-0.4462 -0.5569,0 -1.1027,0.1546 -1.5753,0.4462 -0.4544,0.32 -0.8079,0.74 -1.1007,1.25 -0.267,0.5625 -0.3984,1.1787 -0.3837,1.8 -0.0394,0.5906 0.0767,1.1812 0.3369,1.7141 0.2602,0.5329 0.6556,0.9897 1.1475,1.3259 0.4746,0.29 0.9896,0.45 1.5753,0.45 z m 7.5836,2.53 v -12.08 h 2.9587 l 0.101,1.57 c 0.3718,-0.6018 0.8992,-1.0943 1.5277,-1.4266 0.6285,-0.3323 1.3352,-0.4923 2.047,-0.4634 0.814,-0.0139 1.6141,0.2101 2.3002,0.6441 0.6861,0.434 1.2278,1.0587 1.5573,1.7959 0.3534,0.76 0.5453,1.7 0.5453,2.75 v 7.24 H 85.737 v -6.82 c 0,-0.84 -0.1919,-1.5 -0.5756,-1.99 -0.3837,-0.48 -0.9088,-0.74 -1.5753,-0.74 -0.4847,0 -0.9088,0.1 -1.2825,0.32 -0.3534,0.23 -0.6462,0.52 -0.8684,0.93 -0.2246,0.4145 -0.336,0.8798 -0.3231,1.35 v 6.92 z m 12.6427,0 V 6.72921 h 3.2213 v 6.49999 c 0.4363,-0.5832 1.0039,-1.0577 1.6578,-1.3858 0.6538,-0.3281 1.3758,-0.5007 2.1088,-0.5042 0.7609,-0.011 1.5146,0.1478 2.2051,0.4646 0.6902,0.3168 1.3002,0.7834 1.7832,1.3654 1.082,1.2425 1.654,2.8406 1.606,4.48 0.018,1.677 -0.578,3.3036 -1.676,4.58 -0.508,0.5894 -1.14,1.0614 -1.8519,1.3827 -0.7118,0.3214 -1.4861,0.4843 -2.2684,0.4773 -0.7361,0.02 -1.4652,-0.1458 -2.1188,-0.4817 -0.6536,-0.3358 -1.2102,-0.8308 -1.6175,-1.4383 l -0.0908,1.57 z m 6.2406,-2.53 c 0.5857,0 1.1007,-0.16 1.5753,-0.45 0.4544,-0.32 0.8079,-0.74 1.1007,-1.25 0.2525,-0.51 0.3837,-1.12 0.3837,-1.8 0.0394,-0.5906 -0.0767,-1.1812 -0.3369,-1.7141 -0.2602,-0.5328 -0.6556,-0.9897 -1.1475,-1.3259 -0.4726,-0.2916 -1.0184,-0.4462 -1.5753,-0.4462 -0.5569,0 -1.1026,0.1546 -1.5753,0.4462 -0.4443,0.32 -0.8078,0.74 -1.0905,1.25 -0.2819,0.5574 -0.4141,1.1773 -0.3838,1.8 -0.0393,0.5906 0.0767,1.1812 0.3369,1.7141 0.2602,0.5329 0.6556,0.9897 1.1475,1.3259 0.4746,0.29 0.9594,0.45 1.5652,0.45 z"
       fill="#ff385c"
       id="path1" />
  </g>
</svg>
