<?xml version="1.0" encoding="UTF-8" standalone="no"?>
<svg
   width="104"
   height="32"
   viewBox="0 0 104 32"
   fill="none"
   version="1.1"
   id="svg8"
   sodipodi:docname="amazon-logo.svg"
   inkscape:version="1.4.2 (ebf0e940d0, 2025-05-08)"
   xmlns:inkscape="http://www.inkscape.org/namespaces/inkscape"
   xmlns:sodipodi="http://sodipodi.sourceforge.net/DTD/sodipodi-0.dtd"
   xmlns="http://www.w3.org/2000/svg"
   xmlns:svg="http://www.w3.org/2000/svg">
  <defs
     id="defs8" />
  <sodipodi:namedview
     id="namedview8"
     pagecolor="#ffffff"
     bordercolor="#000000"
     borderopacity="0.25"
     inkscape:showpageshadow="2"
     inkscape:pageopacity="0.0"
     inkscape:pagecheckerboard="0"
     inkscape:deskcolor="#d1d1d1"
     inkscape:zoom="8.5336539"
     inkscape:cx="54.958873"
     inkscape:cy="12.831549"
     inkscape:window-width="1920"
     inkscape:window-height="1008"
     inkscape:window-x="0"
     inkscape:window-y="0"
     inkscape:window-maximized="1"
     inkscape:current-layer="svg8" />
  <path
     fill-rule="evenodd"
     clip-rule="evenodd"
     d="M 61.901809,26.429728 C 57.121843,30.061959 50.193587,31.9999 44.228433,31.9999 c -8.364042,0 -15.893796,-3.189253 -21.590385,-8.493653 -0.44753,-0.417184 -0.04656,-0.985621 0.490494,-0.660754 6.147793,3.687573 13.749181,5.906059 21.601166,5.906059 5.295616,0 11.121097,-1.129527 16.477486,-3.473551 0.809212,-0.354335 1.485938,0.546316 0.694615,1.151727 z"
     fill="#ff9900"
     id="path1"
     style="stroke-width:0.798591" />
  <path
     fill-rule="evenodd"
     clip-rule="evenodd"
     d="m 63.889182,24.085784 c -0.608686,-0.80474 -4.038794,-0.380209 -5.578397,-0.191981 -0.469092,0.0591 -0.540646,-0.361762 -0.118192,-0.664428 2.7319,-1.982262 7.21471,-1.410072 7.737468,-0.745644 0.522758,0.668101 -0.13608,5.300727 -2.70331,7.511786 -0.393865,0.33964 -0.769762,0.15876 -0.594311,-0.291566 0.576422,-1.483942 1.869022,-4.809753 1.256742,-5.618167 z"
     fill="#ff9900"
     id="path2"
     style="stroke-width:0.798591" />
  <path
     fill-rule="evenodd"
     clip-rule="evenodd"
     d="M 58.418036,9.2356665 V 7.3088024 c 0,-0.2916087 0.214821,-0.4872475 0.472686,-0.4872475 h 8.367635 c 0.268487,0 0.483307,0.1993299 0.483307,0.4872475 V 8.958819 c -0.0035,0.2768475 -0.229115,0.6385932 -0.630168,1.210744 l -4.335949,6.382235 c 1.611237,-0.04057 3.311996,0.206755 4.772779,1.055737 0.329418,0.191981 0.41894,0.472526 0.444016,0.749318 v 2.056052 c 0,0.280545 -0.300749,0.609085 -0.615873,0.439305 -2.574338,-1.391625 -5.993744,-1.542958 -8.840242,0.01477 -0.290048,0.162433 -0.594391,-0.162434 -0.594391,-0.442979 v -1.952714 c 0,-0.313767 0.0036,-0.848982 0.307937,-1.325182 l 5.023456,-7.4268797 h -4.371806 c -0.268566,0 -0.483387,-0.1956388 -0.483387,-0.4835628 z"
     fill="#000000"
     id="path3"
     style="stroke-width:0.798591" />
  <path
     fill-rule="evenodd"
     clip-rule="evenodd"
     d="m 27.894214,21.258293 h -2.545748 c -0.243491,-0.01845 -0.43683,-0.206675 -0.454718,-0.446572 V 7.3421276 c 0,-0.2694653 0.218414,-0.483562 0.490494,-0.483562 h 2.373892 c 0.247084,0.011066 0.443936,0.2067121 0.461905,0.4503406 v 1.7607492 h 0.04656 c 0.619387,-1.7016934 1.783014,-2.4953211 3.351286,-2.4953211 1.593349,0 2.588713,0.7936277 3.304809,2.4953211 0.615874,-1.7016934 2.015803,-2.4953211 3.516036,-2.4953211 1.066998,0 2.234298,0.4540301 2.946801,1.4728293 0.805618,1.1332325 0.640869,2.7795514 0.640869,4.2228534 l -0.0035,8.501056 c 0,0.269444 -0.218414,0.48722 -0.490574,0.48722 H 38.990171 C 38.73598,21.239843 38.53186,21.029497 38.53186,20.771073 v -7.138972 c 0,-0.568461 0.05015,-1.98592 -0.07163,-2.524849 -0.189745,-0.904364 -0.75906,-1.1590667 -1.496639,-1.1590667 -0.615793,0 -1.260336,0.4244987 -1.521715,1.1037007 -0.261379,0.679201 -0.236303,1.816115 -0.236303,2.580215 v 7.138972 c 0,0.269444 -0.218415,0.48722 -0.490494,0.48722 h -2.542155 c -0.257785,-0.01845 -0.458311,-0.228796 -0.458311,-0.48722 l -0.0036,-7.138972 c 0,-1.502357 0.239897,-3.7134476 -1.568273,-3.7134476 -1.829651,0 -1.758018,2.1557166 -1.758018,3.7134476 v 7.138972 c 0,0.269444 -0.218414,0.48722 -0.490494,0.48722 z"
     fill="#000000"
     id="path4"
     style="stroke-width:0.798591" />
  <path
     fill-rule="evenodd"
     clip-rule="evenodd"
     d="m 74.945514,6.5743343 c 3.777415,0 5.821887,3.3443191 5.821887,7.5967037 0,4.108431 -2.259293,7.3678 -5.821887,7.3678 -3.709455,0 -5.728852,-3.344259 -5.728852,-7.511762 0,-4.1933208 2.044473,-7.4527417 5.728852,-7.4527417 z m 0.02148,2.7500237 c -1.87621,0 -1.994321,2.63559 -1.994321,4.278219 0,1.646319 -0.02508,5.160439 1.972839,5.160439 1.972839,0 2.065954,-2.834918 2.065954,-4.562454 0,-1.136914 -0.04656,-2.495317 -0.37957,-3.573175 -0.286455,-0.9375938 -0.85569,-1.303029 -1.664902,-1.303029 z"
     fill="#000000"
     id="path5"
     style="stroke-width:0.798591" />
  <path
     fill-rule="evenodd"
     clip-rule="evenodd"
     d="M 85.665638,21.258293 H 83.130591 C 82.8764,21.239846 82.67228,21.029497 82.67228,20.771073 L 82.66878,7.2978298 c 0.02148,-0.2473173 0.23271,-0.4392642 0.490495,-0.4392642 h 2.359517 c 0.222008,0.011066 0.404646,0.1661085 0.454797,0.3765133 v 2.0597472 h 0.04648 c 0.712583,-1.8419579 1.71154,-2.7204918 3.469558,-2.7204918 1.142225,0 2.25546,0.4245006 2.971797,1.5872594 0.666024,1.0778582 0.666024,2.8902923 0.666024,4.1933213 v 8.478927 c -0.02875,0.236223 -0.239577,0.424451 -0.490334,0.424451 h -2.553175 c -0.23271,-0.01845 -0.426049,-0.195575 -0.451124,-0.424451 v -7.316171 c 0,-1.472825 0.164749,-3.6285495 -1.593349,-3.6285495 -0.619387,0 -1.188703,0.4281965 -1.471564,1.0778585 -0.358008,0.823163 -0.404566,1.642637 -0.404566,2.550691 v 7.253402 c -0.0036,0.269444 -0.225602,0.48722 -0.497682,0.48722 z"
     fill="#000000"
     id="path6"
     style="stroke-width:0.798591" />
  <path
     fill-rule="evenodd"
     clip-rule="evenodd"
     d="m 51.747645,14.824366 c 0,1.022435 0.02508,1.875171 -0.476199,2.783169 -0.404567,0.738297 -1.049109,1.192296 -1.761612,1.192296 -0.977475,0 -1.550385,-0.767765 -1.550385,-1.900966 0,-2.236933 1.94425,-2.642992 3.788196,-2.642992 z m 2.56723,6.396952 c -0.168263,0.155087 -0.411753,0.166107 -0.601498,0.06277 -0.845069,-0.723444 -0.998958,-1.059411 -1.460863,-1.749633 -1.396416,1.469088 -2.388186,1.908392 -4.196355,1.908392 -2.144696,0 -3.809678,-1.362076 -3.809678,-4.089983 0,-2.129842 1.117149,-3.580554 2.714011,-4.289288 1.382121,-0.627524 3.311996,-0.738257 4.787153,-0.911751 v -0.339601 c 0,-0.623827 0.04656,-1.362092 -0.31153,-1.9010214 -0.307857,-0.4835628 -0.902248,-0.6828911 -1.428599,-0.6828911 -0.970288,0 -1.833246,0.5130947 -2.044473,1.5761865 -0.04296,0.236248 -0.211227,0.468797 -0.443937,0.479874 l -2.467007,-0.273158 c -0.207633,-0.04799 -0.440423,-0.221482 -0.37949,-0.550006 0.565722,-3.0859229 3.272546,-4.0161376 5.692995,-4.0161376 1.238854,0 2.857198,0.3396008 3.834674,1.3067184 1.238854,1.1922962 1.120742,2.7832492 1.120742,4.5144662 v 4.089968 c 0,1.229191 0.494088,1.76816 0.959507,2.432587 0.161156,0.236224 0.196933,0.520442 -0.0107,0.697649 -0.519164,0.446652 -1.442974,1.277187 -1.951357,1.742286 z"
     fill="#000000"
     id="path7"
     style="stroke-width:0.798591" />
  <path
     fill-rule="evenodd"
     clip-rule="evenodd"
     d="m 18.373716,14.824525 c 0,1.022516 0.02507,1.875172 -0.476208,2.783249 -0.404598,0.738218 -1.045507,1.192297 -1.761603,1.192297 -0.977476,0 -1.546775,-0.767846 -1.546775,-1.901046 0,-2.236933 1.944209,-2.642961 3.784586,-2.642961 z m 2.567246,6.397033 c -0.168343,0.155006 -0.411753,0.166107 -0.601578,0.06277 -0.844989,-0.723523 -0.995364,-1.059411 -1.460783,-1.749713 -1.396432,1.469168 -2.384648,1.908393 -4.196379,1.908393 -2.141142,0 -3.809654,-1.362076 -3.809654,-4.089903 0,-2.129922 1.120694,-3.580603 2.714019,-4.289336 1.382073,-0.627517 3.311964,-0.738257 4.787129,-0.911751 v -0.339593 c 0,-0.623835 0.04655,-1.362093 -0.307921,-1.9010218 -0.311506,-0.4835628 -0.905865,-0.682891 -1.428623,-0.682891 -0.970312,0 -1.836799,0.5130866 -2.048042,1.5761788 -0.04297,0.236247 -0.211251,0.468797 -0.440407,0.479873 l -2.470545,-0.273158 c -0.207665,-0.04799 -0.436819,-0.221481 -0.37953,-0.549997 0.569299,-3.0859312 3.272577,-4.0161426 5.692995,-4.0161426 1.238854,0 2.857246,0.3396007 3.834722,1.306723 1.238854,1.1922883 1.120662,2.7832416 1.120662,4.5144586 v 4.089935 c 0,1.229271 0.494168,1.76816 0.959587,2.432588 0.164749,0.236223 0.200526,0.520522 -0.0071,0.697649 -0.519244,0.446652 -1.442974,1.277187 -1.951437,1.742286 z"
     fill="#000000"
     id="path8"
     style="stroke-width:0.798591" />
</svg>
