<?xml version="1.0" encoding="UTF-8" standalone="no"?>
<svg
   width="102.25043"
   height="35.961658"
   viewBox="0 0 102.25043 35.961658"
   fill="none"
   version="1.1"
   id="svg8"
   sodipodi:docname="amazon-logo.svg"
   inkscape:version="1.4.2 (ebf0e940d0, 2025-05-08)"
   xmlns:inkscape="http://www.inkscape.org/namespaces/inkscape"
   xmlns:sodipodi="http://sodipodi.sourceforge.net/DTD/sodipodi-0.dtd"
   xmlns="http://www.w3.org/2000/svg"
   xmlns:svg="http://www.w3.org/2000/svg">
  <defs
     id="defs8" />
  <sodipodi:namedview
     id="namedview8"
     pagecolor="#ffffff"
     bordercolor="#000000"
     borderopacity="0.25"
     inkscape:showpageshadow="2"
     inkscape:pageopacity="0.0"
     inkscape:pagecheckerboard="0"
     inkscape:deskcolor="#d1d1d1"
     inkscape:zoom="2.8284271"
     inkscape:cx="28.284271"
     inkscape:cy="30.228815"
     inkscape:window-width="1920"
     inkscape:window-height="1008"
     inkscape:window-x="0"
     inkscape:window-y="0"
     inkscape:window-maximized="1"
     inkscape:current-layer="svg8"
     showguides="true">
    <sodipodi:guide
       position="-5.1373797,12.263423"
       orientation="0,-1"
       id="guide9"
       inkscape:locked="false" />
    <sodipodi:guide
       position="51.15729,17.865567"
       orientation="1,0"
       id="guide10"
       inkscape:locked="false" />
    <sodipodi:guide
       position="-5.6759761,28.434257"
       orientation="0,-1"
       id="guide11"
       inkscape:locked="false" />
  </sodipodi:namedview>
  <rect
     style="opacity:0.01;fill:#ffffff;stroke-width:0.00166738"
     id="rect1"
     width="0.11226199"
     height="0.091062769"
     x="102.13699"
     y="0.0050962269" />
  <path
     id="path1"
     style="fill:#ff9900;fill-opacity:1;stroke-width:0.832748"
     d="m 62.678305,25.356308 c -1.59287,0.02261 -3.474645,0.389316 -4.899019,1.422839 -0.440522,0.315612 -0.36609,0.754505 0.123065,0.692876 1.605456,-0.196279 5.183074,-0.638547 5.817795,0.200614 0.638469,0.84299 -0.708811,4.310841 -1.309888,5.858255 -0.182955,0.469587 0.207988,0.657616 0.618698,0.303449 2.677036,-2.30563 3.363824,-7.135683 2.818706,-7.832361 -0.272559,-0.346423 -1.576488,-0.668282 -3.169357,-0.645672 z m -41.801812,0.922149 c -0.361244,0.01301 -0.536541,0.449102 -0.171954,0.788967 5.940243,5.531279 13.792456,8.857345 22.514243,8.857345 6.220295,0 13.445068,-2.020093 18.429481,-5.807681 0.82517,-0.631306 0.118917,-1.571486 -0.724907,-1.201996 -5.585491,2.444283 -11.659847,3.622847 -17.181966,3.622847 -8.187829,0 -16.1153,-2.313037 -22.526045,-6.158333 -0.122506,-0.07411 -0.237703,-0.104793 -0.338852,-0.101149 z" />
  <path
     id="path3"
     style="fill:#000000;stroke-width:0.832748"
     d="m 14.815939,9.276873 c -2.523944,0 -5.3421544,0.971363 -5.9358035,4.189285 -0.05974,0.342567 0.1796224,0.523136 0.3961698,0.573181 l 2.5759467,0.284905 c 0.238957,-0.01155 0.413739,-0.254339 0.458545,-0.500691 0.220279,-1.108563 1.124131,-1.643683 2.135945,-1.643683 0.545117,0 1.165444,0.207173 1.490273,0.71142 0.369634,0.561979 0.320308,1.332016 0.320308,1.982535 v 0.354023 c -1.538261,0.180914 -3.550554,0.296451 -4.99174,0.950808 -1.661474,0.739047 -2.8305064,2.251481 -2.8305064,4.472503 0,2.844501 1.7407764,4.265148 3.9734984,4.265148 1.889222,0 2.920252,-0.457272 4.376412,-1.989279 0.485326,0.719828 0.641173,1.069599 1.522303,1.824067 0.197944,0.10776 0.451585,0.09589 0.627129,-0.06575 l 0.0084,0.0084 c 0.530212,-0.484992 1.493343,-1.351566 2.034796,-1.817323 0.216525,-0.184703 0.178538,-0.480265 0.0068,-0.726592 -0.485324,-0.692847 -0.999697,-1.255324 -0.999697,-2.537172 V 15.34751 c 0,-1.805265 0.121878,-3.463549 -1.169964,-4.706834 C 17.795441,9.6322206 16.107781,9.276873 14.815939,9.276873 Z m 34.80225,0 c -2.523976,0 -5.345885,0.969686 -5.935803,4.187598 -0.06354,0.342576 0.17797,0.524823 0.394483,0.574868 l 2.572576,0.284905 c 0.242663,-0.01155 0.418805,-0.254338 0.463602,-0.500691 0.220262,-1.108563 1.119099,-1.643683 2.130888,-1.643683 0.548864,0 1.169247,0.207174 1.490272,0.71142 0.373407,0.56198 0.325365,1.332025 0.325365,1.982535 v 0.354023 c -1.538252,0.180914 -3.550502,0.296444 -4.991739,0.950808 -1.665163,0.739049 -2.830507,2.251564 -2.830507,4.472503 0,2.844585 1.735385,4.265148 3.971813,4.265148 1.885508,0 2.920269,-0.457355 4.376412,-1.989279 0.481662,0.719745 0.642775,1.069679 1.523989,1.824067 0.197862,0.10776 0.451668,0.09597 0.627128,-0.06575 l 0.0033,0.0084 c 0.530128,-0.484992 1.493427,-1.351566 2.034795,-1.817323 0.216517,-0.184787 0.179851,-0.48195 0.0118,-0.728277 -0.485325,-0.692847 -1.001382,-1.253723 -1.001382,-2.535487 V 15.34751 c 0,-1.805264 0.123563,-3.463541 -1.168279,-4.706834 C 52.59769,9.6322255 50.910031,9.276873 49.618189,9.276873 Z M 30.069318,9.4117393 c -1.63535,0 -2.848843,0.8284417 -3.494723,2.6029187 h -0.04889 V 10.178792 C 26.506967,9.9247425 26.301211,9.7199846 26.043558,9.7084451 h -2.474796 c -0.283718,0 -0.512492,0.223072 -0.512492,0.5040629 v 14.046325 c 0.01865,0.250159 0.221497,0.44605 0.475404,0.465289 h 2.653495 c 0.283717,0 0.512491,-0.226465 0.512491,-0.507434 v -7.44462 c 0,-1.624358 -0.07541,-3.872349 1.832496,-3.872349 1.885509,0 1.635254,2.305733 1.635254,3.872349 l 0.0033,7.44462 c 0,0.269477 0.209963,0.488195 0.478775,0.507434 h 2.650122 c 0.283717,10e-7 0.512493,-0.226465 0.512493,-0.507434 v -7.44462 c -10e-7,-0.796781 -0.02643,-1.982332 0.24613,-2.690583 0.272559,-0.708252 0.944232,-1.151421 1.586365,-1.151421 0.769126,0 1.363216,0.265694 1.561078,1.208739 0.126994,0.561981 0.07417,2.04049 0.07417,2.633265 v 7.44462 c 0,0.269477 0.213711,0.488194 0.478776,0.507434 h 2.650123 c 0.2838,10e-7 0.512492,-0.226465 0.512492,-0.507434 l 0.0033,-8.865774 c 0,-1.505035 0.170802,-3.221682 -0.669274,-4.403385 -0.742978,-1.0623747 -1.958945,-1.5357897 -3.071579,-1.5357897 -1.564402,0 -3.024461,0.8284417 -3.666678,2.6029187 -0.746631,-1.774477 -1.784242,-2.6029187 -3.44574,-2.6029187 z m 45.180212,0 c -3.841966,0 -5.974577,3.3989937 -5.974577,7.7716697 0,4.345755 2.106462,7.834047 5.974577,7.834047 3.714973,0 6.070669,-3.399851 6.070669,-7.684008 0,-4.434266 -2.131687,-7.9217087 -6.070669,-7.9217087 z m 15.165716,0 c -1.833206,0 -2.874725,0.9165077 -3.617789,2.8372497 h -0.04889 V 10.101243 C 86.696271,9.881839 86.506355,9.7199846 86.274851,9.7084451 h -2.459626 c -0.26881,0 -0.490092,0.2006499 -0.512491,0.4585459 l 0.0033,14.049697 c 0,0.269477 0.213711,0.488194 0.478775,0.507434 h 2.643379 c 0.283716,0 0.515782,-0.226465 0.519236,-0.507434 v -7.564314 c -10e-7,-0.946893 0.04814,-1.801867 0.421457,-2.660238 0.294962,-0.677449 0.88823,-1.122762 1.534103,-1.122762 1.833302,0 1.662228,2.247179 1.662228,3.783 v 7.628375 c 0.02615,0.238666 0.227682,0.424133 0.470347,0.443373 h 2.661923 c 0.261481,10e-7 0.480858,-0.197045 0.510809,-0.443373 v -8.840486 c 0,-1.358762 -5.2e-5,-3.24908 -0.694564,-4.37304 C 92.766817,9.8547312 91.606333,9.4117393 90.415246,9.4117393 Z M 58.507564,9.6696711 c -0.268894,0 -0.492263,0.2050391 -0.492263,0.5091209 v 2.007821 c 0,0.300239 0.224011,0.504064 0.504064,0.504064 h 4.558481 l -5.23787,7.744696 c -0.317396,0.496569 -0.321994,1.055193 -0.321994,1.38238 v 2.036481 c 0,0.292544 0.317931,0.631298 0.620385,0.461917 2.968247,-1.624351 6.533666,-1.466319 9.218112,-0.01517 0.328603,0.177042 0.642301,-0.166 0.642301,-0.458546 v -2.144373 c -0.02615,-0.288631 -0.120095,-0.580347 -0.463603,-0.78054 -1.523263,-0.885294 -3.296414,-1.143148 -4.976566,-1.100845 l 4.521392,-6.655653 c 0.418207,-0.596623 0.653848,-0.973997 0.657474,-1.262685 v -1.719547 c 0,-0.3002329 -0.224093,-0.5091209 -0.504063,-0.5091209 z m 16.763882,2.6096629 c 0.843823,0 1.437697,0.381082 1.736403,1.358778 0.347254,1.12396 0.39617,2.54014 0.39617,3.725682 0,1.801425 -0.09727,4.759095 -2.154489,4.759095 -2.083374,0 -2.056711,-3.66443 -2.056711,-5.381166 0,-1.712888 0.122168,-4.462389 2.078627,-4.462389 z m -59.014123,5.143463 v 0.591726 c 0,1.066251 0.02708,1.95608 -0.495635,2.902997 -0.421902,0.769794 -1.090828,1.242457 -1.837553,1.242457 -1.019284,0 -1.613338,-0.79918 -1.613338,-1.980848 0,-2.332611 2.027432,-2.756332 3.946526,-2.756332 z m 34.802249,0 v 0.591726 c 0,1.066167 0.0254,1.956163 -0.497319,2.902997 -0.421871,0.769875 -1.09289,1.242457 -1.835867,1.242457 -1.019283,0 -1.616711,-0.800866 -1.616711,-1.982535 0,-2.332611 2.027083,-2.754645 3.949897,-2.754645 z" />
  <rect
     style="opacity:0.01;fill:#ffffff;stroke-width:0.00127544"
     id="rect2"
     width="0.082604647"
     height="0.072412901"
     x="0"
     y="35.883724" />
</svg>
