<?xml version="1.0" encoding="UTF-8" standalone="no"?>
<svg
   width="101"
   height="30"
   viewBox="0 0 101 30"
   fill="none"
   version="1.1"
   id="svg3"
   sodipodi:docname="fedex-logo.svg"
   inkscape:version="1.4.2 (ebf0e940d0, 2025-05-08)"
   xmlns:inkscape="http://www.inkscape.org/namespaces/inkscape"
   xmlns:sodipodi="http://sodipodi.sourceforge.net/DTD/sodipodi-0.dtd"
   xmlns="http://www.w3.org/2000/svg"
   xmlns:svg="http://www.w3.org/2000/svg">
  <sodipodi:namedview
     id="namedview3"
     pagecolor="#ffffff"
     bordercolor="#000000"
     borderopacity="0.25"
     inkscape:showpageshadow="2"
     inkscape:pageopacity="0.0"
     inkscape:pagecheckerboard="0"
     inkscape:deskcolor="#d1d1d1"
     inkscape:zoom="6.2134383"
     inkscape:cx="37.016542"
     inkscape:cy="11.668258"
     inkscape:window-width="1920"
     inkscape:window-height="1008"
     inkscape:window-x="0"
     inkscape:window-y="0"
     inkscape:window-maximized="1"
     inkscape:current-layer="svg3" />
  <g
     clip-path="url(#clip0)"
     id="g3"
     transform="matrix(0.89807039,0,0,0.89807039,5.1411766,1.2875319)">
    <path
       d="m 74.8638,29.1021 8.3395,-9.2366 -8.3395,-9.2378 h 8.7991 l 4.1304,4.4871 3.9774,-4.4871 h 8.4923 l -8.3001,9.1997 8.4141,9.2747 h -8.8354 l -4.0931,-4.524 -4.0543,4.524 z"
       fill="#ff6600"
       id="path1" />
    <path
       d="m 74.8637,6.48643 h -9.4452 v 4.14127 h 9.4452 v 6.2413 h -9.4452 v 5.7287 h 9.4452 v 6.5044 H 58.4763 V 0 h 16.3874 z"
       fill="#ff6600"
       id="path2" />
    <path
       d="M 51.5635,0 V 11.91 H 51.4874 C 49.957,10.176 48.0448,9.57343 45.8261,9.57343 c -4.5448,0 -7.9683,3.04547 -9.17,7.07187 -1.3704,-4.4366 -4.9048,-7.15502 -10.1457,-7.15502 -4.2561,0 -7.6169,1.88312 -9.3708,4.95172 V 10.6281 H 8.34217 V 6.48729 H 17.9426 V 0 H 0.5 V 29.1026 H 8.34217 V 16.869 h 7.81653 c -0.233,0.8987 -0.3574,1.8609 -0.3574,2.8761 0,6.0708 4.7048,10.3303 10.7091,10.3303 5.0492,0 8.3766,-2.3365 10.1366,-6.5965 h -6.7205 c -0.9091,1.2797 -1.5987,1.6598 -3.4161,1.6598 -2.1074,0 -3.9243,-1.8124 -3.9243,-3.9608 h 13.6843 c 0.5935,4.8218 4.4039,8.9802 9.6331,8.9802 2.2556,0 4.3209,-1.0937 5.5839,-2.9404 h 0.0761 v 1.884 h 6.913 V 0 Z M 22.8043,16.956 c 0.4361,-1.8484 1.8905,-3.0566 3.7061,-3.0566 1.9987,0 3.3792,1.1709 3.7422,3.0566 0.1531,0 -7.4483,0 -7.4483,0 z m 24.564,7.7151 c -2.5483,0 -4.1318,-2.3404 -4.1318,-4.7841 0,-2.6121 1.3774,-5.124 4.1318,-5.124 2.856,0 3.9939,2.5119 3.9939,5.124 -5e-4,2.4771 -1.2061,4.7841 -3.9939,4.7841 z"
       fill="#652c8f"
       id="path3" />
  </g>
  <defs
     id="defs3">
    <clipPath
       id="clip0">
      <rect
         width="101"
         height="30"
         fill="white"
         id="rect3" />
    </clipPath>
  </defs>
</svg>
