<?xml version="1.0" encoding="UTF-8" standalone="no"?>
<svg
   width="102.25043"
   height="35.961658"
   viewBox="0 0 102.25043 35.961658"
   fill="none"
   version="1.1"
   id="svg8"
   sodipodi:docname="google-logo.svg"
   inkscape:version="1.4.2 (ebf0e940d0, 2025-05-08)"
   xmlns:inkscape="http://www.inkscape.org/namespaces/inkscape"
   xmlns:sodipodi="http://sodipodi.sourceforge.net/DTD/sodipodi-0.dtd"
   xmlns="http://www.w3.org/2000/svg"
   xmlns:svg="http://www.w3.org/2000/svg">
  <defs
     id="defs8" />
  <sodipodi:namedview
     id="namedview8"
     pagecolor="#ffffff"
     bordercolor="#000000"
     borderopacity="0.25"
     inkscape:showpageshadow="2"
     inkscape:pageopacity="0.0"
     inkscape:pagecheckerboard="0"
     inkscape:deskcolor="#d1d1d1"
     inkscape:zoom="8"
     inkscape:cx="48.25"
     inkscape:cy="21.6875"
     inkscape:window-width="1920"
     inkscape:window-height="1008"
     inkscape:window-x="0"
     inkscape:window-y="0"
     inkscape:window-maximized="1"
     inkscape:current-layer="svg8"
     showguides="true">
    <sodipodi:guide
       position="-5.1373797,12.263423"
       orientation="0,-1"
       id="guide9"
       inkscape:locked="false" />
    <sodipodi:guide
       position="51.15729,17.865567"
       orientation="1,0"
       id="guide10"
       inkscape:locked="false" />
    <sodipodi:guide
       position="-5.6759761,28.434257"
       orientation="0,-1"
       id="guide11"
       inkscape:locked="false" />
  </sodipodi:namedview>
  <rect
     style="opacity:0.01;fill:#ffffff;stroke-width:0.00166738"
     id="rect1"
     width="0.11226199"
     height="0.091062769"
     x="102.14031"
     y="0" />
  <rect
     style="opacity:0.01;fill:#ffffff;stroke-width:0.00127849"
     id="rect2"
     width="0.082999997"
     height="0.072412901"
     x="0"
     y="35.889248" />
  <path
     d="m 44.547985,17.000309 c 0,4.4418 -3.4892,7.7148 -7.7712,7.7148 -4.2819,0 -7.7711,-3.273 -7.7711,-7.7148 0,-4.473 3.4892,-7.7147402 7.7711,-7.7147402 4.282,0 7.7712,3.2417402 7.7712,7.7147402 z m -3.4018,0 c 0,-2.7756 -2.0223,-4.6747 -4.3694,-4.6747 -2.347,0 -4.3693,1.8991 -4.3693,4.6747 0,2.7479 2.0223,4.6748 4.3693,4.6748 2.3471,0 4.3694,-1.9304 4.3694,-4.6748 z"
     fill="#ea4335"
     id="path1-7" />
  <path
     d="m 61.312585,17.000309 c 0,4.4418 -3.4891,7.7148 -7.7711,7.7148 -4.282,0 -7.7711,-3.273 -7.7711,-7.7148 0,-4.4695 3.4891,-7.7147402 7.7711,-7.7147402 4.282,0 7.7711,3.2417402 7.7711,7.7147402 z m -3.4018,0 c 0,-2.7756 -2.0222,-4.6747 -4.3693,-4.6747 -2.3471,0 -4.3693,1.8991 -4.3693,4.6747 0,2.7479 2.0222,4.6748 4.3693,4.6748 2.3471,0 4.3693,-1.9304 4.3693,-4.6748 z"
     fill="#fbbc05"
     id="path2" />
  <path
     d="M 77.378885,9.7516488 V 23.602109 c 0,5.6974 -3.3739,8.0243 -7.3625,8.0243 -3.7546,0 -6.0143,-2.5008 -6.8665,-4.5461 l 2.9617,-1.2278 c 0.5274,1.2557 1.8197,2.7374 3.9013,2.7374 2.5531,0 4.1353,-1.5687 4.1353,-4.5217 v -1.1096 h -0.1187 c -0.7614,0.9357 -2.2283,1.753 -4.0794,1.753 -3.8734,0 -7.4219,-3.36 -7.4219,-7.6834 0,-4.3548 3.5485,-7.7426402 7.4219,-7.7426402 1.8476,0 3.3145,0.8173902 4.0794,1.7252402 h 0.1187 V 9.7551288 h 3.2307 z m -2.9897,7.2765602 c 0,-2.7166 -1.8197,-4.7026 -4.1353,-4.7026 -2.347,0 -4.3134,1.986 -4.3134,4.7026 0,2.6887 1.9664,4.6469 4.3134,4.6469 2.3156,0 4.1353,-1.9582 4.1353,-4.6469 z"
     fill="#4285f4"
     id="path3-5" />
  <path
     d="M 82.705285,1.6334688 V 24.242209 h -3.318 V 1.6334688 Z"
     fill="#34a853"
     id="path4" />
  <path
     d="m 95.635185,19.539509 2.6404,1.7531 c -0.8522,1.2556 -2.9059,3.4191 -6.4544,3.4191 -4.4007,0 -7.6873,-3.3878 -7.6873,-7.7148 0,-4.5878 3.3145,-7.7147602 7.3066,-7.7147602 4.02,0 5.9864,3.1860602 6.629,4.9078602 l 0.3528,0.8765 -10.3557,4.2713 c 0.7928,1.5478 2.0257,2.3374 3.7546,2.3374 1.7324,0 2.9338,-0.8487 3.814,-2.1357 z m -8.1274,-2.7756 6.9224,-2.8626 c -0.3807,-0.9635 -1.5263,-1.6348 -2.8744,-1.6348 -1.7289,0 -4.1353,1.52 -4.048,4.4974 z"
     fill="#ea4335"
     id="path5" />
  <path
     d="m 16.446185,14.993609 v -3.2731 h 11.0752 c 0.1083,0.5705 0.1642,1.2452 0.1642,1.9757 0,2.4556 -0.6741,5.4922 -2.8465,7.6556 -2.1131,2.1913 -4.8129,3.36 -8.3894,3.36 -6.6289998,0 -12.2032678,-5.3774 -12.2032678,-11.9791 0,-6.6017302 5.574268,-11.97912622 12.2032678,-11.97912622 3.6673,0 6.2798,1.43304602 8.2427,3.30086602 l -2.3191,2.30957 c -1.4076,-1.31478 -3.3146,-2.33739 -5.9271,-2.33739 -4.84076,0 -8.6267898,3.88521 -8.6267898,8.7060802 0,4.8209 3.7860298,8.7061 8.6267898,8.7061 3.1399,0 4.9282,-1.2557 6.0738,-2.3965 0.929,-0.9252 1.5402,-2.247 1.7812,-4.0522 z"
     fill="#4285f4"
     id="path6" />
</svg>
