<?xml version="1.0" encoding="UTF-8" standalone="no"?>
<svg
   width="102.25043"
   height="35.961658"
   viewBox="0 0 102.25043 35.961658"
   fill="none"
   version="1.1"
   id="svg8"
   sodipodi:docname="microsoft-logo.svg"
   inkscape:version="1.4.2 (ebf0e940d0, 2025-05-08)"
   xmlns:inkscape="http://www.inkscape.org/namespaces/inkscape"
   xmlns:sodipodi="http://sodipodi.sourceforge.net/DTD/sodipodi-0.dtd"
   xmlns="http://www.w3.org/2000/svg"
   xmlns:svg="http://www.w3.org/2000/svg">
  <defs
     id="defs8">
    <clipPath
       id="clip0">
      <rect
         width="123"
         height="26"
         fill="#ffffff"
         id="rect5"
         x="0"
         y="0" />
    </clipPath>
  </defs>
  <sodipodi:namedview
     id="namedview8"
     pagecolor="#ffffff"
     bordercolor="#000000"
     borderopacity="0.25"
     inkscape:showpageshadow="2"
     inkscape:pageopacity="0.0"
     inkscape:pagecheckerboard="0"
     inkscape:deskcolor="#d1d1d1"
     inkscape:zoom="8"
     inkscape:cx="48.25"
     inkscape:cy="21.6875"
     inkscape:window-width="1920"
     inkscape:window-height="1008"
     inkscape:window-x="0"
     inkscape:window-y="0"
     inkscape:window-maximized="1"
     inkscape:current-layer="svg8"
     showguides="true">
    <sodipodi:guide
       position="-5.1373797,12.263423"
       orientation="0,-1"
       id="guide9"
       inkscape:locked="false" />
    <sodipodi:guide
       position="51.15729,17.865567"
       orientation="1,0"
       id="guide10"
       inkscape:locked="false" />
    <sodipodi:guide
       position="-5.6759761,28.434257"
       orientation="0,-1"
       id="guide11"
       inkscape:locked="false" />
  </sodipodi:namedview>
  <rect
     style="opacity:0.01;fill:#ffffff;stroke-width:0.00166738"
     id="rect1"
     width="0.11226199"
     height="0.091062769"
     x="102.14031"
     y="0" />
  <rect
     style="opacity:0.01;fill:#ffffff;stroke-width:0.00127849"
     id="rect2"
     width="0.082999997"
     height="0.072412901"
     x="0"
     y="35.889248" />
  <g
     clip-path="url(#clip0)"
     id="g5"
     transform="matrix(0.83490629,0,0,0.83490629,-0.1674534,5.9577189)">
    <path
       d="m 43.5636,14.9753 -0.7271,2.0558 h -0.0606 c -0.1212,-0.4636 -0.3434,-1.169 -0.707,-2.0155 L 38.1706,5.24042 H 34.353 V 20.8203 h 2.5249 v -9.614 c 0,-0.6046 0,-1.28991 -0.0202,-2.13643 C 36.8375,8.64662 36.7971,8.32414 36.7769,8.08228 h 0.0606 C 36.9587,8.68693 37.1,9.13034 37.201,9.41251 L 41.8871,20.78 h 1.7775 L 48.3103,9.31173 c 0.101,-0.26201 0.202,-0.78604 0.303,-1.22945 h 0.0606 c -0.0606,1.14883 -0.101,2.17672 -0.1212,2.80152 v 9.876 h 2.6864 V 5.20011 H 47.563 Z M 53.7841,9.5939 H 56.41 v 11.1659 h -2.6259 z m 1.3332,-4.71627 c -0.4444,0 -0.808,0.16124 -1.111,0.44341 -0.3029,0.28217 -0.4645,0.64496 -0.4645,1.08837 0,0.42325 0.1616,0.78605 0.4645,1.06822 0.303,0.28217 0.6666,0.42325 1.111,0.42325 0.4443,0 0.8281,-0.16124 1.1109,-0.42325 0.303,-0.28217 0.4646,-0.64497 0.4646,-1.06822 0,-0.42326 -0.1616,-0.78605 -0.4646,-1.08837 C 55.9656,5.03887 55.5818,4.87763 55.1173,4.87763 Z m 10.6043,4.6155 C 65.2368,9.39235 64.7318,9.33189 64.2471,9.33189 c -1.1918,0 -2.2825,0.26202 -3.1914,0.78601 -0.909,0.5241 -1.6361,1.2496 -2.1007,2.1566 -0.4848,0.9272 -0.7271,1.9954 -0.7271,3.2248 0,1.0682 0.2423,2.0155 0.7069,2.8822 0.4646,0.8465 1.1109,1.5318 1.9795,1.9954 0.8281,0.4635 1.7977,0.7054 2.8884,0.7054 1.2523,0 2.3228,-0.262 3.1712,-0.7458 l 0.0202,-0.0201 v -2.4186 l -0.101,0.0806 c -0.3838,0.2822 -0.8282,0.524 -1.2725,0.6651 -0.4646,0.1613 -0.8888,0.2419 -1.2523,0.2419 -1.0504,0 -1.8785,-0.3023 -2.4643,-0.9675 -0.6059,-0.6449 -0.9089,-1.5317 -0.9089,-2.6403 0,-1.1488 0.303,-2.0558 0.9291,-2.7209 0.6262,-0.6651 1.4543,-1.0078 2.4643,-1.0078 0.8483,0 1.7168,0.2822 2.5046,0.8466 l 0.101,0.0806 V 9.91639 L 66.9739,9.89623 C 66.6305,9.75515 66.2467,9.5939 65.7216,9.49313 Z m 8.6652,-0.08062 c -0.6464,0 -1.2523,0.20155 -1.7775,0.62479 -0.4444,0.3628 -0.7473,0.8868 -1.0099,1.5116 h -0.0202 v -1.955 h -2.6258 v 11.1659 h 2.6258 v -5.7039 c 0,-0.9674 0.202,-1.7736 0.6463,-2.3581 0.4444,-0.6047 1.01,-0.907 1.6967,-0.907 0.2424,0 0.4848,0.0605 0.7878,0.1008 0.2828,0.0806 0.4847,0.1612 0.6261,0.262 l 0.101,0.0806 V 9.61406 L 75.3765,9.5939 C 75.1947,9.47297 74.8312,9.41251 74.3868,9.41251 Z m 7.1503,-0.06046 c -1.8381,0 -3.3126,0.54418 -4.3427,1.61235 -1.0503,1.0683 -1.5553,2.5396 -1.5553,4.3938 0,1.7334 0.5252,3.1442 1.5351,4.1721 1.0099,1.0078 2.3835,1.5318 4.1003,1.5318 1.7977,0 3.2318,-0.5442 4.262,-1.6325 1.0503,-1.0884 1.5553,-2.5396 1.5553,-4.3334 0,-1.7736 -0.4848,-3.1845 -1.4745,-4.2124 C 84.6679,9.85592 83.2742,9.35205 81.5371,9.35205 Z m 2.1007,8.58605 c -0.4848,0.6248 -1.2523,0.9271 -2.2017,0.9271 -0.9493,0 -1.7169,-0.3023 -2.2622,-0.9674 -0.5454,-0.6248 -0.808,-1.5318 -0.808,-2.6806 0,-1.1892 0.2828,-2.0962 0.808,-2.7411 0.5453,-0.645 1.2927,-0.9675 2.242,-0.9675 0.9292,0 1.6563,0.3024 2.1815,0.9272 0.5252,0.6248 0.8079,1.5317 0.8079,2.7209 -0.0404,1.2093 -0.2625,2.1566 -0.7675,2.7814 z m 9.3116,-3.7085 c -0.8282,-0.3427 -1.3533,-0.6047 -1.5957,-0.8264 -0.202,-0.2015 -0.303,-0.4837 -0.303,-0.8465 0,-0.3023 0.1212,-0.6047 0.4242,-0.8062 0.303,-0.2016 0.6463,-0.3023 1.1513,-0.3023 0.4444,0 0.9089,0.0806 1.3533,0.2015 0.4444,0.1209 0.8484,0.3023 1.1715,0.5442 l 0.101,0.0806 V 9.81561 L 95.1914,9.79546 C 94.8884,9.67453 94.4845,9.5536 93.9997,9.45282 93.5149,9.3722 93.0706,9.33189 92.707,9.33189 c -1.2523,0 -2.2825,0.30233 -3.0904,0.96741 -0.8079,0.6248 -1.1917,1.4713 -1.1917,2.4589 0,0.5241 0.0808,0.9876 0.2626,1.3706 0.1817,0.3829 0.4443,0.7457 0.8079,1.0481 0.3636,0.2821 0.8887,0.6046 1.6159,0.9069 0.606,0.262 1.0705,0.4636 1.3533,0.6248 0.2828,0.1613 0.4646,0.3427 0.606,0.4838 0.101,0.1612 0.1616,0.3627 0.1616,0.6248 0,0.7457 -0.5656,1.1085 -1.7169,1.1085 -0.4444,0 -0.909,-0.0806 -1.4543,-0.262 -0.5454,-0.1814 -1.0504,-0.4434 -1.4745,-0.7458 l -0.101,-0.0806 v 2.5597 l 0.0606,0.0202 c 0.3837,0.1814 0.8483,0.3023 1.4139,0.4434 0.5655,0.1007 1.0705,0.1814 1.5149,0.1814 1.3533,0 2.4642,-0.3024 3.252,-0.9675 0.8079,-0.6449 1.2321,-1.4713 1.2321,-2.5395 0,-0.7457 -0.202,-1.4109 -0.6464,-1.9147 -0.5857,-0.4838 -1.3129,-0.9876 -2.3632,-1.3907 z m 9.9376,-4.87755 c -1.838,0 -3.3125,0.54418 -4.3426,1.61235 -1.0301,1.0683 -1.5553,2.5396 -1.5553,4.3938 0,1.7334 0.5252,3.1442 1.5351,4.1721 1.0099,1.0078 2.3838,1.5318 4.1008,1.5318 1.797,0 3.231,-0.5442 4.261,-1.6325 1.051,-1.0884 1.556,-2.5396 1.556,-4.3334 0,-1.7736 -0.485,-3.1845 -1.475,-4.2124 -0.949,-1.02788 -2.343,-1.53175 -4.08,-1.53175 z m 2.081,8.58605 c -0.485,0.6248 -1.253,0.9271 -2.202,0.9271 -0.97,0 -1.717,-0.3023 -2.262,-0.9674 -0.5457,-0.6248 -0.8083,-1.5318 -0.8083,-2.6806 0,-1.1892 0.2828,-2.0962 0.8083,-2.7411 0.545,-0.645 1.292,-0.9675 2.242,-0.9675 0.909,0 1.656,0.3024 2.181,0.9272 0.525,0.6248 0.808,1.5317 0.808,2.7209 0,1.2093 -0.262,2.1566 -0.767,2.7814 z M 122.48,11.7505 V 9.5939 h -2.646 V 6.28848 l -0.081,0.02015 -2.505,0.74574 -0.06,0.02016 V 9.5939 h -3.959 V 8.18305 c 0,-0.64496 0.161,-1.14883 0.444,-1.47132 0.283,-0.32248 0.707,-0.48372 1.232,-0.48372 0.364,0 0.748,0.08062 1.172,0.26202 l 0.101,0.06046 V 4.27298 l -0.061,-0.02016 c -0.363,-0.12093 -0.848,-0.20155 -1.474,-0.20155 -0.788,0 -1.475,0.18139 -2.101,0.48372 -0.626,0.34264 -1.091,0.8062 -1.434,1.43101 -0.343,0.60465 -0.525,1.28992 -0.525,2.07597 V 9.5939 h -1.838 v 2.1364 h 1.838 v 9.0295 h 2.646 v -9.0093 h 3.959 v 5.7442 c 0,2.3581 1.111,3.5473 3.333,3.5473 0.363,0 0.747,-0.0605 1.11,-0.121 0.384,-0.0806 0.667,-0.1814 0.829,-0.262 l 0.02,-0.0201 v -2.1566 l -0.101,0.0806 c -0.162,0.1008 -0.303,0.1814 -0.546,0.2419 -0.202,0.0604 -0.383,0.0806 -0.525,0.0806 -0.525,0 -0.888,-0.121 -1.151,-0.4233 -0.242,-0.2821 -0.364,-0.7457 -0.364,-1.431 v -5.2806 z"
       fill="#737373"
       id="path1" />
    <path
       d="M 0.5,0 H 12.8818 V 12.355 H 0.5 Z"
       fill="#f25022"
       id="path2" />
    <path
       d="M 14.1743,0 H 26.5561 V 12.355 H 14.1743 Z"
       fill="#7fba00"
       id="path3" />
    <path
       d="M 0.5,13.645 H 12.8818 V 26.0001 H 0.5 Z"
       fill="#00a4ef"
       id="path4" />
    <path
       d="M 14.1743,13.645 H 26.5561 V 26.0001 H 14.1743 Z"
       fill="#ffb900"
       id="path5" />
  </g>
</svg>
